<?xml version="1.0" standalone="no"?>
<!DOCTYPE svg PUBLIC "-//W3C//DTD SVG 20010904//EN"
 "http://www.w3.org/TR/2001/REC-SVG-20010904/DTD/svg10.dtd">
<svg version="1.0" xmlns="http://www.w3.org/2000/svg"
 width="480.000000pt" height="480.000000pt" viewBox="0 0 480.000000 480.000000"
 preserveAspectRatio="xMidYMid meet">
<metadata>
Created by potrace 1.11, written by Peter Selinger 2001-2013
</metadata>
<g transform="translate(0.000000,480.000000) scale(0.100000,-0.100000)"
fill="#000000" stroke="none">
<path d="M2482 4600 c0 -14 2 -19 5 -12 2 6 2 18 0 25 -3 6 -5 1 -5 -13z"/>
<path d="M2425 4538 c-27 -65 -13 -150 50 -287 31 -67 65 -150 76 -184 35
-107 33 -245 -6 -366 -5 -17 -4 -21 5 -16 17 10 70 126 70 152 0 12 4 24 9 27
15 10 51 -113 51 -173 l1 -56 36 40 c84 94 126 233 127 420 1 120 -1 135 -26
193 -15 34 -41 83 -58 109 -18 26 -37 58 -43 72 -9 23 -11 23 -15 7 -4 -19 15
-103 29 -121 12 -18 49 -146 49 -174 0 -38 -29 -131 -40 -131 -6 0 -10 22 -10
50 0 38 -9 66 -40 125 -22 42 -40 87 -40 100 0 13 -5 27 -11 31 -11 7 -10 -20
7 -158 5 -42 3 -49 -24 -77 l-30 -32 -40 83 c-56 115 -83 208 -89 311 -3 48
-10 87 -15 87 -5 0 -15 -15 -23 -32z"/>
<path d="M2186 4380 c-27 -41 -75 -103 -107 -138 -74 -79 -99 -127 -106 -207
-8 -98 2 -111 37 -46 38 70 51 84 62 73 6 -6 4 -21 -6 -40 -10 -19 -12 -33 -6
-37 6 -3 10 -21 10 -40 0 -19 11 -69 24 -112 14 -43 26 -94 28 -113 2 -19 7
-35 12 -35 34 0 48 191 20 266 -11 28 -17 78 -18 139 -1 88 1 99 28 145 64
109 77 142 74 181 l-3 39 -49 -75z"/>
<path d="M2317 4294 c-8 -13 -16 -53 -29 -133 -12 -83 7 -180 56 -283 30 -63
34 -81 26 -102 -12 -33 -34 -33 -65 0 -24 26 -25 26 -25 5 0 -55 68 -141 111
-141 23 0 30 7 44 45 22 55 12 103 -41 202 -30 57 -34 74 -32 121 2 31 8 57
14 59 6 2 28 -21 49 -52 21 -30 40 -55 41 -55 2 0 0 17 -3 38 -10 62 -39 137
-82 209 -22 37 -44 74 -49 82 -5 9 -11 11 -15 5z"/>
<path d="M2205 4264 c-9 -15 -12 -23 -6 -20 11 7 35 46 28 46 -3 0 -12 -12
-22 -26z"/>
<path d="M3595 4260 c-10 -11 -16 -22 -13 -25 3 -3 13 4 23 15 10 11 16 22 13
25 -3 3 -13 -4 -23 -15z"/>
<path d="M1240 4209 c0 -5 5 -7 10 -4 6 3 10 8 10 11 0 2 -4 4 -10 4 -5 0 -10
-5 -10 -11z"/>
<path d="M3515 4200 c-10 -11 -16 -22 -13 -25 3 -3 13 6 22 20 20 30 16 32 -9
5z"/>
<path d="M3555 4210 c3 -5 10 -10 16 -10 5 0 9 5 9 10 0 6 -7 10 -16 10 -8 0
-12 -4 -9 -10z"/>
<path d="M1274 4097 c-93 -69 -219 -199 -258 -266 -6 -10 -30 -51 -54 -90 -24
-39 -57 -104 -73 -144 -17 -39 -37 -85 -44 -102 -39 -89 -106 -353 -98 -385 6
-21 -16 -12 318 -135 143 -52 270 -100 283 -105 29 -13 28 -8 -13 66 -19 34
-35 65 -35 68 0 3 26 6 59 6 l58 0 7 64 c17 168 108 337 260 485 45 43 73 78
69 85 -4 6 -35 45 -70 86 -220 264 -323 391 -323 400 0 20 -29 9 -86 -33z
m-45 -377 c20 0 11 -15 -24 -38 -32 -20 -35 -21 -35 -4 0 10 -5 23 -12 30 -9
9 -8 12 5 12 10 0 20 7 24 16 6 16 7 16 18 0 7 -9 17 -16 24 -16z m-117 -36
c-6 -32 -34 -44 -63 -28 -13 7 -18 13 -11 14 6 0 12 8 12 18 0 14 7 18 33 18
28 -1 33 -4 29 -22z m235 0 c9 -19 7 -23 -11 -28 -48 -13 -63 -8 -58 22 3 21
9 27 31 28 19 1 30 -6 38 -22z m78 -60 c12 4 13 2 6 -13 -6 -10 -7 -21 -4 -25
3 -3 -1 -6 -10 -6 -9 0 -21 -8 -26 -17 -10 -17 -10 -17 -11 -1 0 9 -8 21 -17
27 -17 9 -17 10 0 16 9 4 17 14 17 22 0 13 3 13 15 3 8 -7 22 -10 30 -6z
m-415 -9 c0 -8 5 -15 10 -15 6 0 10 -4 10 -10 0 -5 -7 -10 -15 -10 -8 0 -15
-4 -15 -9 0 -5 -12 -11 -26 -14 -19 -3 -24 -1 -20 10 3 8 1 24 -5 35 -9 17 -8
19 9 14 11 -4 23 -2 27 4 9 15 25 12 25 -5z m450 -99 c0 -8 8 -17 18 -21 13
-5 9 -10 -23 -25 l-40 -19 -7 27 c-4 14 -6 26 -5 26 1 1 11 6 22 13 27 16 35
16 35 -1z m-510 -6 c0 -5 9 -10 19 -10 26 0 17 -32 -12 -45 -17 -8 -26 -7 -39
6 -14 15 -14 18 -2 23 8 3 14 12 14 21 0 8 5 15 10 15 6 0 10 -4 10 -10z m513
-127 c3 -17 0 -23 -14 -23 -11 0 -19 -4 -19 -9 0 -5 -9 -7 -20 -4 -21 6 -26
18 -10 28 5 3 7 11 4 19 -3 9 5 13 25 13 23 0 30 -5 34 -24z m-472 -8 c7 -25
-20 -46 -50 -38 -16 4 -19 9 -11 18 6 7 8 19 5 27 -4 10 2 14 22 13 19 0 30
-6 34 -20z m407 -85 c17 0 2 -29 -18 -35 -10 -3 -27 -1 -38 6 -18 11 -18 12 2
34 17 17 23 19 32 8 6 -7 16 -13 22 -13z m-331 -29 c-7 -2 -14 -7 -17 -10 -3
-3 -16 -12 -29 -19 -21 -13 -23 -12 -17 3 3 10 1 24 -5 31 -9 11 -8 14 5 14 9
0 19 7 22 15 5 12 10 11 30 -7 15 -15 19 -24 11 -27z m226 -38 c7 -10 0 -17
-26 -28 -20 -8 -38 -15 -39 -15 -2 0 -3 14 -3 30 0 22 5 30 17 30 9 0 20 5 24
12 6 9 9 8 12 -2 3 -8 9 -21 15 -27z m-120 -3 c-3 -11 -15 -25 -27 -33 -18
-12 -23 -12 -39 3 -16 15 -16 18 -2 23 8 4 15 12 15 20 0 9 9 12 29 9 22 -3
28 -8 24 -22z"/>
<path d="M3500 3908 c-145 -188 -133 -166 -126 -222 14 -126 19 -157 27 -162
5 -3 54 39 110 93 l101 98 -7 65 c-3 36 -9 90 -11 120 -9 104 -20 104 -94 8z"/>
<path d="M1995 3919 c-9 -17 -15 -37 -13 -45 2 -8 10 5 19 30 19 53 16 59 -6
15z"/>
<path d="M2481 3923 c-1 -6 -4 -20 -7 -30 -5 -17 -5 -17 6 0 6 10 9 23 6 30
-3 9 -5 9 -5 0z"/>
<path d="M3249 3893 c-65 -69 -299 -353 -299 -363 0 -5 19 -22 43 -37 23 -16
51 -36 61 -45 11 -10 23 -18 27 -18 3 0 66 63 139 140 l133 141 -18 62 c-9 34
-25 83 -34 110 l-16 47 -36 -37z"/>
<path d="M3721 3844 c-17 -14 -45 -46 -62 -70 -27 -39 -30 -50 -25 -97 7 -79
18 -127 27 -127 5 0 48 35 96 77 49 42 89 78 91 79 5 3 -12 34 -57 106 l-38
59 -32 -27z"/>
<path d="M2601 3723 c-10 -26 -10 -27 4 -9 8 11 15 23 15 28 0 15 -7 8 -19
-19z"/>
<path d="M2770 3710 c-6 -11 -8 -20 -6 -20 3 0 10 9 16 20 6 11 8 20 6 20 -3
0 -10 -9 -16 -20z"/>
<path d="M2575 3679 c-4 -6 -5 -12 -2 -15 2 -3 7 2 10 11 7 17 1 20 -8 4z"/>
<path d="M2759 3562 c-30 -32 -112 -127 -184 -212 -71 -84 -147 -171 -167
-194 -33 -36 -46 -56 -35 -56 4 0 75 82 297 340 140 163 154 180 148 180 -3 0
-29 -26 -59 -58z"/>
<path d="M1698 3533 c-78 -76 -141 -161 -179 -243 -31 -65 -53 -130 -46 -136
2 -2 13 23 24 55 42 124 127 244 241 345 29 25 48 46 41 46 -6 0 -42 -30 -81
-67z"/>
<path d="M3865 3505 c-79 -69 -92 -81 -143 -127 l-52 -47 0 -88 c0 -48 4 -93
8 -99 5 -8 60 21 168 88 l161 100 -17 57 c-34 107 -54 151 -70 151 -8 0 -33
-16 -55 -35z"/>
<path d="M1777 3470 c-113 -101 -190 -252 -204 -397 l-6 -63 34 0 c34 0 35 1
52 67 33 126 81 210 172 299 l83 81 -25 32 c-13 17 -30 31 -37 31 -6 0 -37
-23 -69 -50z"/>
<path d="M3290 3423 c-47 -41 -89 -82 -93 -92 -6 -12 4 -40 34 -95 l42 -78 69
73 70 73 -7 93 c-4 53 -12 94 -19 96 -6 2 -49 -29 -96 -70z"/>
<path d="M3610 3490 c-8 -5 -52 -46 -97 -92 -82 -82 -83 -84 -82 -133 0 -27 3
-67 7 -87 l7 -37 103 91 102 91 0 51 c0 60 -10 126 -19 126 -3 0 -13 -5 -21
-10z"/>
<path d="M2815 3375 c-52 -63 -95 -121 -95 -129 0 -21 35 -29 59 -14 40 25 84
-24 61 -67 -14 -26 -13 -28 39 -77 l52 -51 50 49 c32 32 46 51 39 58 -6 6 -10
22 -10 38 0 37 41 65 73 51 24 -11 97 -5 97 7 0 39 -220 250 -260 250 -5 0
-52 -52 -105 -115z"/>
<path d="M1899 3413 c-13 -16 -12 -17 4 -4 9 7 17 15 17 17 0 8 -8 3 -21 -13z"/>
<path d="M1829 3353 c-39 -42 -90 -105 -63 -78 30 29 116 125 113 125 -3 0
-25 -21 -50 -47z"/>
<path d="M1965 3296 c-79 -53 -147 -156 -161 -245 l-7 -42 47 3 c47 3 47 3 70
60 27 65 54 101 114 149 23 19 42 36 42 39 0 3 -13 20 -28 38 l-27 32 -50 -34z"/>
<path d="M2039 3203 c-13 -16 -12 -17 4 -4 16 13 21 21 13 21 -2 0 -10 -8 -17
-17z"/>
<path d="M3107 3120 c-43 -44 -77 -87 -77 -95 0 -22 46 -19 80 5 18 13 31 16
35 10 9 -14 48 -13 63 2 16 16 15 43 -3 58 -11 9 -12 16 -4 26 13 16 8 66 -7
71 -6 2 -45 -32 -87 -77z"/>
<path d="M2654 3176 c-3 -8 0 -24 6 -36 9 -16 9 -25 1 -33 -15 -15 -14 -50 1
-65 16 -16 51 -15 67 1 10 10 16 8 31 -10 12 -15 29 -23 50 -23 30 0 30 1 16
21 -25 36 -146 159 -157 159 -5 0 -12 -6 -15 -14z"/>
<path d="M3975 3156 c-171 -93 -279 -157 -287 -168 -5 -8 -8 -2 -9 17 -1 52
-8 88 -17 97 -7 7 -28 0 -58 -18 -27 -16 -62 -36 -79 -45 -16 -9 -38 -29 -48
-45 -73 -115 -87 -141 -87 -162 0 -13 3 -21 8 -19 4 3 142 61 307 130 165 69
313 131 328 138 27 12 28 16 22 54 -3 22 -9 43 -13 47 -4 4 -34 -8 -67 -26z"/>
<path d="M2120 3138 c-32 -34 -52 -66 -64 -105 -7 -22 -5 -23 51 -23 58 0 58
0 80 41 l23 42 -29 38 -28 39 -33 -32z"/>
<path d="M2586 3098 c-68 -77 -64 -88 32 -87 55 0 71 3 55 9 -28 11 -40 56
-24 83 10 16 10 22 -2 34 -12 13 -20 8 -61 -39z"/>
<path d="M1462 3115 c0 -16 2 -22 5 -12 2 9 2 23 0 30 -3 6 -5 -1 -5 -18z"/>
<path d="M3215 3130 c-4 -6 -2 -17 4 -23 17 -17 13 -55 -9 -77 l-20 -20 35 0
c39 0 40 2 24 68 -13 53 -23 69 -34 52z"/>
<path d="M3364 3081 c-66 -63 -65 -71 11 -71 64 0 65 0 64 28 -1 38 -13 75
-24 78 -6 2 -28 -14 -51 -35z"/>
<path d="M739 3055 c-16 -15 11 -294 37 -400 89 -354 287 -644 587 -858 l82
-59 3 63 c2 41 -1 65 -8 67 -25 9 -173 127 -232 185 -72 72 -164 193 -212 280
-86 153 -150 380 -162 574 -8 112 -11 120 -57 141 -32 14 -32 14 -38 7z"/>
<path d="M3825 2964 c-299 -127 -283 -118 -249 -151 8 -9 14 -28 12 -43 -1
-15 6 -39 16 -55 25 -38 12 -74 -34 -97 -27 -14 -39 -29 -52 -65 -18 -52 -23
-113 -10 -113 5 0 34 5 64 11 52 11 57 14 71 50 10 26 23 40 41 45 36 9 74 -2
80 -24 4 -10 22 -24 41 -31 23 -8 37 -20 41 -37 6 -23 10 -25 57 -22 l51 3 28
78 c41 113 77 305 80 427 3 99 2 105 -17 107 -11 1 -110 -36 -220 -83z"/>
<path d="M2710 3020 c-11 -7 -7 -10 18 -10 20 0 31 4 27 10 -8 13 -26 13 -45
0z"/>
<path d="M3125 3020 c-3 -5 3 -10 15 -10 12 0 18 5 15 10 -3 6 -10 10 -15 10
-5 0 -12 -4 -15 -10z"/>
<path d="M980 2923 c0 -66 32 -210 70 -318 67 -192 168 -353 302 -481 43 -41
82 -74 88 -74 5 0 10 22 10 50 0 47 -3 52 -59 109 -106 107 -189 234 -245 373
-32 81 -66 234 -66 299 0 46 -1 47 -45 68 -25 12 -47 21 -50 21 -3 0 -5 -21
-5 -47z"/>
<path d="M1380 2964 c0 -4 19 -40 43 -81 l42 -75 3 67 c2 38 1 74 -2 82 -5 13
-86 20 -86 7z"/>
<path d="M1766 2953 c-3 -10 -4 -39 -3 -65 l3 -47 -25 19 c-14 10 -46 37 -71
59 -25 23 -48 41 -52 41 -7 0 -14 -365 -9 -394 2 -10 -14 2 -63 47 -35 31 -43
33 -48 10 -2 -9 -2 -139 0 -290 l3 -273 107 0 107 1 -47 42 -48 43 0 203 0
203 73 -63 72 -62 5 202 5 202 65 -55 c36 -31 69 -56 73 -56 4 0 6 55 5 123
l-3 122 -72 3 c-61 2 -72 0 -77 -15z"/>
<path d="M2075 2960 c-3 -5 -6 -81 -6 -168 -1 -87 -5 -165 -9 -173 -8 -11 -13
-10 -34 6 -13 11 -41 33 -60 49 -20 16 -39 26 -42 23 -3 -3 -6 -92 -5 -197 0
-179 -1 -191 -17 -178 -9 7 -21 16 -27 20 -5 5 -28 24 -50 43 -43 37 -55 42
-56 23 0 -12 0 -232 1 -315 l0 -33 75 0 75 0 0 120 0 121 73 -62 72 -63 5 202
5 201 73 -60 72 -59 0 193 c0 107 3 197 6 200 4 3 27 -12 53 -34 l46 -41 3 83
c2 45 0 89 -2 96 -4 10 -21 13 -58 11 -53 -3 -53 -3 -53 -37 0 -19 -5 -36 -11
-38 -5 -2 -30 15 -54 37 -44 40 -64 48 -75 30z"/>
<path d="M2385 2960 c-3 -6 -6 -196 -6 -423 1 -226 1 -427 1 -444 l0 -33 450
0 450 0 0 340 0 340 59 103 c43 74 56 105 49 115 -13 16 -993 18 -1003 2z
m807 -151 c27 -56 45 -105 42 -110 -3 -5 -42 -9 -88 -9 l-82 0 -23 45 c-19 38
-27 45 -52 45 -27 0 -29 -3 -29 -39 0 -36 3 -40 34 -51 65 -21 80 -49 86 -163
5 -87 10 -110 32 -147 14 -25 35 -53 47 -64 26 -23 45 -79 36 -106 -11 -34
-79 -54 -220 -66 -44 -3 -86 -11 -93 -17 -18 -14 -64 -18 -78 -6 -7 6 -50 14
-96 19 -75 9 -111 16 -175 35 -46 14 -39 94 14 150 56 59 73 107 73 207 0 78
3 89 25 117 14 16 41 35 60 41 32 11 35 15 35 51 0 39 -1 40 -32 37 -26 -2
-36 -11 -52 -43 l-21 -40 -92 -3 -92 -3 52 110 52 110 295 0 295 0 47 -100z"/>
<path d="M2550 2300 c-18 -12 -2 -12 25 0 13 6 15 9 5 9 -8 0 -22 -4 -30 -9z"/>
<path d="M1150 2900 c8 -5 22 -9 30 -9 10 0 8 3 -5 9 -27 12 -43 12 -25 0z"/>
<path d="M1230 2856 c0 -29 59 -244 83 -303 28 -70 112 -203 127 -203 6 0 10
33 10 81 0 75 -2 84 -30 119 -44 56 -81 142 -94 223 -11 64 -15 72 -42 84 -38
16 -54 16 -54 -1z"/>
<path d="M4092 2835 c0 -16 2 -22 5 -12 2 9 2 23 0 30 -3 6 -5 -1 -5 -18z"/>
<path d="M1370 2820 c8 -5 20 -10 25 -10 6 0 3 5 -5 10 -8 5 -19 10 -25 10 -5
0 -3 -5 5 -10z"/>
<path d="M3412 2791 c-35 -16 -67 -32 -73 -38 -11 -11 -13 -618 -2 -661 5 -21
12 -7 37 69 l31 94 128 29 128 29 15 -22 c28 -39 104 -19 104 27 0 9 14 25 30
34 31 18 42 61 18 71 -17 6 -362 -59 -410 -77 -21 -8 -38 -13 -38 -11 0 2 29
105 65 229 36 124 65 232 65 240 0 22 -25 19 -98 -13z"/>
<path d="M4082 2765 c0 -16 2 -22 5 -12 2 9 2 23 0 30 -3 6 -5 -1 -5 -18z"/>
<path d="M4066 2694 c-4 -20 -5 -38 -3 -40 3 -3 8 11 11 32 4 20 5 38 3 40 -3
3 -8 -11 -11 -32z"/>
<path d="M4051 2624 c0 -11 3 -14 6 -6 3 7 2 16 -1 19 -3 4 -6 -2 -5 -13z"/>
<path d="M4018 2522 c-109 -316 -316 -582 -605 -774 -94 -63 -98 -81 -5 -22
230 147 418 355 540 599 41 83 105 252 100 267 -2 4 -15 -27 -30 -70z"/>
<path d="M2219 2446 c-2 -2 -3 -90 -1 -195 l3 -191 54 0 55 0 0 154 0 154 -47
41 c-47 40 -56 45 -64 37z"/>
<path d="M2069 2166 c-2 -2 -2 -27 -1 -55 l4 -51 66 0 67 1 -60 54 c-57 53
-67 60 -76 51z"/>
<path d="M1885 2020 c-214 -3 -390 -7 -390 -8 0 -288 7 -668 13 -673 4 -4 190
-100 415 -214 l407 -206 -2 547 -3 548 -25 5 c-14 3 -200 4 -415 1z m-270 -61
c85 -57 95 -60 186 -42 71 13 97 14 169 4 l85 -12 77 35 c69 31 88 35 88 16 0
-3 -25 -17 -55 -29 -30 -13 -55 -29 -55 -36 0 -8 20 -24 45 -36 l45 -23 0
-207 0 -208 -32 -24 c-88 -66 -205 -102 -300 -93 -111 11 -272 78 -286 119 -6
17 -8 352 -3 403 0 6 19 19 41 29 22 10 40 22 40 26 0 4 -25 24 -55 44 -30 21
-52 41 -49 46 8 14 26 11 59 -12z"/>
<path d="M1873 1903 c9 -2 25 -2 35 0 9 3 1 5 -18 5 -19 0 -27 -2 -17 -5z"/>
<path d="M1798 1893 c6 -2 18 -2 25 0 6 3 1 5 -13 5 -14 0 -19 -2 -12 -5z"/>
<path d="M1968 1844 c-38 -19 -68 -36 -68 -38 0 -2 37 11 82 30 45 19 88 32
95 30 8 -3 11 -1 8 4 -11 18 -48 9 -117 -26z"/>
<path d="M1677 1863 c-3 -5 8 -8 23 -8 15 0 26 3 23 8 -2 4 -13 7 -23 7 -10 0
-21 -3 -23 -7z"/>
<path d="M1807 1774 c-16 -9 -27 -17 -25 -19 8 -8 77 18 72 27 -7 11 -14 10
-47 -8z"/>
<path d="M2118 1766 c-54 -32 -60 -42 -11 -17 23 11 44 25 48 31 8 13 7 13
-37 -14z"/>
<path d="M1684 1714 c-19 -15 -19 -16 1 -8 11 4 33 7 48 7 20 0 24 3 15 8 -20
13 -42 11 -64 -7z"/>
<path d="M1915 1700 c-24 -7 -21 -8 21 -7 29 1 50 5 47 10 -5 8 -27 8 -68 -3z"/>
<path d="M1823 1693 c9 -2 25 -2 35 0 9 3 1 5 -18 5 -19 0 -27 -2 -17 -5z"/>
<path d="M2090 1653 c-36 -18 -54 -31 -40 -27 34 9 97 41 105 54 3 5 5 9 3 8
-2 0 -32 -16 -68 -35z"/>
<path d="M1998 1613 c7 -3 16 -2 19 1 4 3 -2 6 -13 5 -11 0 -14 -3 -6 -6z"/>
<path d="M1788 1603 c6 -2 18 -2 25 0 6 3 1 5 -13 5 -14 0 -19 -2 -12 -5z"/>
<path d="M1943 1603 c9 -2 23 -2 30 0 6 3 -1 5 -18 5 -16 0 -22 -2 -12 -5z"/>
<path d="M1873 1593 c9 -2 23 -2 30 0 6 3 -1 5 -18 5 -16 0 -22 -2 -12 -5z"/>
<path d="M2473 2013 c48 -2 126 -2 175 0 48 1 8 3 -88 3 -96 0 -136 -2 -87 -3z"/>
<path d="M2765 2010 c-8 -13 5 -13 25 0 13 8 13 10 -2 10 -9 0 -20 -4 -23 -10z"/>
<path d="M2895 1940 c3 -5 8 -10 11 -10 2 0 4 5 4 10 0 6 -5 10 -11 10 -5 0
-7 -4 -4 -10z"/>
<path d="M3132 1773 c-7 -3 -19 -18 -27 -34 -15 -28 -16 -28 -118 -32 l-102
-3 113 -2 c103 -2 112 -1 112 16 0 27 35 56 60 49 11 -3 18 -1 14 4 -6 10 -31
11 -52 2z"/>
<path d="M3321 1664 c0 -11 3 -14 6 -6 3 7 2 16 -1 19 -3 4 -6 -2 -5 -13z"/>
<path d="M940 1546 l0 -114 -72 -65 c-44 -40 -69 -70 -66 -79 5 -11 399 -188
420 -188 4 0 8 32 10 72 l3 72 108 35 107 35 0 59 0 58 -47 21 c-27 11 -49 25
-51 29 -2 5 -10 9 -17 9 -8 0 -61 23 -118 50 -57 28 -109 50 -114 50 -6 0 -16
7 -23 15 -6 8 -15 14 -18 13 -4 -1 -27 8 -52 20 -71 34 -70 36 -70 -92z m118
-45 c8 -4 13 -19 12 -32 -5 -52 -1 -59 30 -59 29 0 30 2 30 44 0 48 8 60 35
50 14 -6 16 -22 14 -113 -1 -80 -5 -110 -17 -123 -25 -29 -32 -21 -32 37 0 42
-4 57 -16 62 -28 11 -49 -11 -46 -47 3 -30 -19 -70 -40 -70 -9 0 -11 243 -1
253 8 9 15 9 31 -2z"/>
<path d="M3735 1621 c-44 -21 -150 -71 -235 -111 -85 -39 -159 -76 -164 -81
-12 -11 -9 -89 4 -104 5 -6 56 -26 114 -45 l106 -34 0 -73 c0 -53 4 -73 13
-73 7 0 92 34 187 76 96 42 190 82 209 90 l33 14 -76 71 -76 71 0 119 c0 140
5 137 -115 80z m-2 -149 c23 -20 22 -38 -3 -45 -13 -3 -25 2 -34 14 -13 19
-46 17 -46 -2 0 -15 39 -49 55 -49 24 0 55 -37 55 -66 0 -38 -50 -84 -93 -84
-39 0 -52 12 -59 53 -4 22 -2 27 16 27 12 0 27 -9 34 -20 14 -23 40 -26 48 -6
8 22 -14 56 -36 56 -29 0 -60 36 -60 68 0 69 69 100 123 54z"/>
<path d="M3224 1565 c-17 -13 -16 -14 14 -4 33 11 41 19 19 19 -7 0 -22 -7
-33 -15z"/>
<path d="M2888 1559 c-10 -5 -18 -15 -18 -22 0 -9 2 -9 8 -1 4 6 52 16 107 21
l100 10 -90 1 c-49 1 -98 -3 -107 -9z"/>
<path d="M2731 1524 c0 -11 3 -14 6 -6 3 7 2 16 -1 19 -3 4 -6 -2 -5 -13z"/>
<path d="M3196 1521 c-10 -11 -30 -22 -45 -24 -19 -4 -17 -4 8 -3 23 1 38 8
49 24 18 27 11 29 -12 3z"/>
<path d="M2703 1290 c-18 -11 -33 -23 -33 -27 0 -4 5 -2 12 5 7 7 22 12 35 12
14 0 23 6 23 15 0 19 1 19 -37 -5z"/>
<path d="M1415 1263 c-83 -30 -83 -30 -64 -47 12 -13 301 -146 315 -146 3 0 4
30 2 66 l-3 66 -80 44 c-44 24 -84 43 -90 43 -5 0 -41 -12 -80 -26z"/>
<path d="M3215 1248 c-38 -17 -75 -34 -81 -39 -11 -9 -13 -114 -2 -125 5 -5
305 120 317 131 13 14 -107 66 -150 65 -8 0 -45 -15 -84 -32z"/>
<path d="M3800 1151 c-220 -96 -245 -109 -247 -131 -3 -23 -2 -23 6 -5 6 15
73 48 227 115 290 124 303 130 279 129 -11 0 -130 -49 -265 -108z"/>
<path d="M2936 1215 c-3 -8 -17 -20 -32 -25 -31 -12 -26 -25 5 -15 21 6 47 42
38 51 -2 3 -7 -2 -11 -11z"/>
<path d="M3315 1114 c-93 -42 -183 -81 -200 -89 -256 -115 -740 -325 -750
-325 -11 0 -64 23 -240 105 -27 12 -101 46 -164 75 -63 29 -131 61 -150 71
-20 10 -39 19 -43 19 -4 0 -60 25 -123 55 -64 30 -118 55 -120 55 -2 0 -51 23
-110 50 -59 28 -113 50 -121 50 -12 0 -14 -32 -14 -187 0 -104 3 -198 6 -209
4 -15 34 -35 102 -67 53 -25 297 -141 542 -256 l444 -211 191 86 c104 48 240
109 300 136 106 48 355 161 480 218 33 15 84 38 113 50 l52 23 -2 210 c-2 129
-7 211 -13 213 -5 2 -86 -31 -180 -72z m-1865 -106 c0 -11 -7 -18 -20 -18 -22
0 -22 1 -22 -89 0 -68 -5 -91 -19 -91 -5 0 -9 43 -9 95 0 84 -2 96 -20 107
-12 8 -20 24 -20 40 l0 28 55 -27 c36 -18 55 -33 55 -45z m1992 -52 c-2 -84
-7 -118 -17 -126 -12 -10 -17 -7 -25 16 -25 71 -27 71 -34 19 -18 -128 -34
-107 -31 41 3 95 6 119 19 126 11 6 18 5 20 -4 3 -7 10 -31 18 -53 l13 -40 3
60 c3 51 12 74 32 75 3 0 4 -51 2 -114z m-1954 55 c10 -6 11 -19 7 -45 -8 -38
6 -66 31 -66 10 0 14 13 14 41 0 28 4 39 13 37 15 -6 18 -237 2 -240 -5 -2
-11 19 -13 47 -3 52 -15 75 -38 75 -10 0 -14 -13 -14 -45 0 -47 -14 -61 -23
-22 -8 34 -8 227 1 227 4 0 13 -4 20 -9z m1806 -33 c22 -31 21 -133 -2 -178
-21 -42 -65 -71 -83 -53 -18 18 -23 111 -9 162 11 42 48 91 69 91 5 0 17 -10
25 -22z m-114 -37 c0 -4 -11 -20 -24 -34 -22 -24 -24 -32 -19 -105 4 -52 2
-86 -7 -101 -18 -35 -23 -19 -21 74 2 79 0 86 -20 93 -16 6 -28 3 -48 -16 -25
-23 -26 -28 -23 -107 3 -65 0 -89 -12 -107 -15 -21 -16 -17 -16 76 0 94 -1 98
-21 93 -17 -5 -20 -1 -17 20 3 21 19 32 108 74 111 51 120 54 120 40z m-1506
-20 c20 -22 46 -102 46 -141 0 -15 -7 -41 -16 -58 -21 -44 -57 -43 -84 1 -26
43 -29 171 -3 199 21 23 36 23 57 -1z m120 -122 c4 -38 11 -69 16 -69 5 0 12
25 15 55 8 60 8 60 35 45 16 -9 19 -24 19 -130 1 -102 -1 -119 -14 -114 -11 5
-15 24 -16 78 -1 65 -2 68 -11 36 -17 -59 -30 -91 -36 -85 -3 3 -11 42 -18 88
-9 65 -12 74 -14 42 -2 -22 -4 -47 -5 -55 -1 -8 -3 -23 -4 -32 0 -10 -5 -18
-11 -18 -6 0 -10 48 -10 125 l0 125 24 -11 c20 -10 25 -21 30 -80z m1124 9
c21 -21 15 -148 -8 -186 -25 -40 -67 -63 -80 -42 -29 47 -16 184 21 221 22 22
49 25 67 7z m-950 -30 c7 -7 12 -23 12 -37 0 -15 7 -65 17 -114 12 -66 14 -90
5 -99 -9 -9 -13 -4 -18 20 -9 42 -42 62 -61 36 -24 -33 -27 -4 -9 89 25 130
27 132 54 105z m813 -40 c17 -32 13 -132 -7 -173 -20 -43 -66 -72 -83 -52 -18
22 -24 93 -12 148 19 85 75 128 102 77z m-682 -24 c20 -26 29 -74 13 -74 -4 0
-12 10 -17 22 -6 12 -16 23 -22 26 -25 7 -12 -31 22 -69 26 -29 35 -48 35 -73
0 -35 -21 -66 -45 -66 -11 0 -45 25 -45 33 0 1 -4 17 -9 35 -12 42 7 44 31 2
9 -17 22 -30 28 -30 21 0 9 38 -25 81 -25 32 -35 54 -35 80 0 61 34 77 69 33z
m542 -123 c-12 -68 -26 -120 -35 -129 -15 -15 -16 -12 -17 33 -1 77 -14 100
-22 40 -4 -28 -8 -57 -10 -65 -5 -24 -25 -55 -31 -49 -8 8 -35 212 -29 222 11
19 21 2 28 -48 8 -67 25 -82 26 -23 3 106 32 144 44 56 12 -85 21 -86 28 -2 4
45 12 81 20 86 19 12 19 0 -2 -121z m-357 34 c17 -26 22 -65 8 -65 -5 0 -14
11 -20 25 -6 14 -16 25 -21 25 -23 0 -18 -20 19 -69 56 -74 53 -141 -5 -141
-28 0 -51 26 -60 69 -9 41 13 40 33 -2 14 -30 42 -37 42 -11 0 9 -16 34 -35
55 -29 32 -35 47 -35 82 0 24 3 47 7 50 15 15 52 6 67 -18z m76 -219 c0 -22
-11 -46 -21 -46 -5 0 -9 14 -9 30 0 20 5 30 15 30 8 0 15 -6 15 -14z"/>
<path d="M3236 928 c-22 -32 -22 -126 0 -135 25 -9 44 24 44 78 0 79 -15 98
-44 57z"/>
<path d="M1632 878 c-26 -26 -2 -148 28 -148 29 0 38 71 16 125 -16 37 -25 42
-44 23z"/>
<path d="M2861 761 c-26 -26 -30 -111 -5 -131 27 -23 48 11 48 75 0 68 -14 85
-43 56z"/>
<path d="M1945 678 c-7 -28 -1 -48 16 -48 12 0 12 40 0 59 -8 12 -11 9 -16
-11z"/>
<path d="M2710 685 c-23 -60 -3 -146 28 -126 19 11 33 82 23 117 -10 38 -38
43 -51 9z"/>
<path d="M3005 1154 c-16 -8 -90 -42 -165 -76 -74 -33 -163 -73 -197 -89 -35
-15 -102 -45 -150 -66 -49 -20 -99 -43 -112 -49 -13 -7 -30 -10 -39 -7 -10 4
-13 2 -8 -5 11 -18 29 -15 98 17 35 16 180 82 323 146 143 64 271 123 285 131
35 19 2 18 -35 -2z"/>
<path d="M2130 966 c0 -2 7 -7 16 -10 8 -3 12 -2 9 4 -6 10 -25 14 -25 6z"/>
<path d="M2275 890 c3 -5 11 -10 16 -10 6 0 7 5 4 10 -3 6 -11 10 -16 10 -6 0
-7 -4 -4 -10z"/>
<path d="M3550 770 c0 -26 -6 -32 -52 -53 -29 -14 -168 -76 -308 -140 -140
-63 -372 -168 -515 -233 -143 -64 -275 -123 -293 -129 -20 -7 -28 -14 -20 -17
7 -3 36 5 63 17 154 70 1020 462 1073 486 59 26 62 29 62 63 0 20 -2 36 -5 36
-3 0 -5 -13 -5 -30z"/>
<path d="M1307 699 c7 -7 15 -10 18 -7 3 3 -2 9 -12 12 -14 6 -15 5 -6 -5z"/>
<path d="M1477 619 c7 -7 15 -10 18 -7 3 3 -2 9 -12 12 -14 6 -15 5 -6 -5z"/>
<path d="M1570 576 c0 -2 7 -7 16 -10 8 -3 12 -2 9 4 -6 10 -25 14 -25 6z"/>
<path d="M1980 380 c8 -5 20 -10 25 -10 6 0 3 5 -5 10 -8 5 -19 10 -25 10 -5
0 -3 -5 5 -10z"/>
<path d="M2160 296 c0 -2 7 -7 16 -10 8 -3 12 -2 9 4 -6 10 -25 14 -25 6z"/>
</g>
</svg>
